<svg xmlns="http://www.w3.org/2000/svg" viewBox="0 0 95.78 95.51">
<path d="M0 47.757v47.758h4.762V0H0Zm26.458-16.483c0 19.05.106 31.168.238 31.009.477-.476 6.88-12.039 10.399-18.759 7.937-15.134 14.234-30.136 17.224-41.09L55.007 0H26.458ZM76.385 3.307c-.979 4.472-2.725 10.372-4.921 16.748l-1.852 5.319 1.72 3.254c.926 1.8 2.407 4.762 3.28 6.614 6.853 14.606 11.616 32.862 14.023 53.71.318 2.673.609 5.24.688 5.716l.133.847h6.323V0H77.1ZM56.86 52.44c-2.752 5.45-8.387 15.637-12.727 22.966C39.53 83.211 33.072 93.98 32.492 94.8l-.503.715h35.507l-.185-1.376c-1.164-9.949-3.44-22.199-5.53-29.845-1.587-5.742-3.783-12.647-4.1-12.833-.133-.079-.504.37-.821.98z" style="fill:#ad3163"/>
</svg>